<svg xmlns="http://www.w3.org/2000/svg" width="123" height="39">
    <g>
        <path d="M 0 38.218 L 0 0 L 122.616 0 L 122.616 38.218 Z" fill="transparent"></path>
        <path
            d="M 49.133 20.433 L 47.002 14.855 C 46.915 14.626 46.582 14.626 46.495 14.855 L 44.364 20.433 C 44.349 20.473 44.344 20.516 44.349 20.558 C 44.355 20.6 44.371 20.64 44.395 20.674 C 44.42 20.709 44.454 20.737 44.492 20.757 C 44.531 20.777 44.574 20.787 44.617 20.787 L 48.88 20.787 C 48.923 20.787 48.966 20.777 49.005 20.757 C 49.043 20.737 49.077 20.709 49.101 20.674 C 49.126 20.64 49.142 20.599 49.148 20.558 C 49.153 20.516 49.148 20.473 49.133 20.433 Z M 50.118 23.569 L 43.379 23.569 C 43.324 23.569 43.27 23.585 43.225 23.616 C 43.18 23.646 43.145 23.69 43.126 23.74 L 41.8 27.211 C 41.78 27.261 41.746 27.304 41.701 27.335 C 41.655 27.365 41.602 27.382 41.546 27.382 L 38.626 27.382 C 38.582 27.382 38.538 27.371 38.499 27.351 C 38.46 27.331 38.427 27.302 38.402 27.267 C 38.377 27.231 38.362 27.19 38.357 27.148 C 38.352 27.105 38.359 27.062 38.375 27.022 L 45.099 10.759 C 45.119 10.71 45.154 10.668 45.199 10.639 C 45.243 10.61 45.296 10.594 45.35 10.594 L 48.147 10.594 C 48.257 10.594 48.356 10.659 48.397 10.759 L 55.121 27.022 C 55.138 27.062 55.144 27.105 55.139 27.148 C 55.135 27.19 55.119 27.231 55.094 27.267 C 55.07 27.302 55.036 27.331 54.997 27.351 C 54.958 27.372 54.915 27.382 54.871 27.382 L 51.95 27.382 C 51.895 27.382 51.842 27.366 51.796 27.335 C 51.751 27.304 51.717 27.261 51.697 27.211 L 50.371 23.74 C 50.351 23.69 50.317 23.646 50.272 23.616 C 50.226 23.585 50.172 23.569 50.117 23.569 Z M 56.49 16.302 L 58.988 16.302 C 59.059 16.302 59.128 16.33 59.179 16.379 C 59.229 16.428 59.258 16.495 59.258 16.564 L 59.258 27.12 C 59.258 27.189 59.229 27.256 59.179 27.305 C 59.128 27.354 59.059 27.382 58.988 27.382 L 56.49 27.382 C 56.418 27.382 56.349 27.354 56.299 27.305 C 56.248 27.256 56.219 27.189 56.219 27.12 L 56.219 16.564 C 56.219 16.494 56.248 16.428 56.299 16.379 C 56.349 16.329 56.418 16.302 56.49 16.302 Z M 68.368 18.869 C 68.368 18.939 68.34 19.006 68.289 19.055 C 68.238 19.104 68.17 19.132 68.098 19.132 L 68.022 19.132 C 66.787 19.132 65.881 19.419 65.305 19.995 C 64.728 20.571 64.441 21.522 64.441 22.849 L 64.441 27.12 C 64.441 27.189 64.412 27.256 64.361 27.305 C 64.311 27.354 64.242 27.382 64.17 27.382 L 61.697 27.382 C 61.625 27.382 61.557 27.354 61.506 27.305 C 61.455 27.256 61.427 27.189 61.427 27.12 L 61.427 16.564 C 61.427 16.494 61.455 16.428 61.506 16.378 C 61.557 16.329 61.625 16.302 61.697 16.302 L 64.146 16.302 C 64.217 16.302 64.286 16.329 64.337 16.378 C 64.387 16.428 64.416 16.494 64.416 16.564 L 64.416 18.652 L 64.465 18.652 C 64.762 17.788 65.231 17.125 65.873 16.661 C 66.515 16.198 67.306 15.966 68.244 15.966 L 68.368 15.966 L 68.368 18.869 Z M 75.198 18.772 C 75.127 18.772 75.058 18.8 75.007 18.849 C 74.957 18.898 74.928 18.965 74.928 19.034 L 74.928 23.425 C 74.928 23.872 75.018 24.192 75.2 24.384 C 75.381 24.576 75.694 24.672 76.138 24.672 L 76.387 24.672 C 76.459 24.672 76.527 24.699 76.578 24.748 C 76.629 24.798 76.657 24.864 76.657 24.934 L 76.657 27.143 C 76.657 27.213 76.629 27.28 76.578 27.329 C 76.527 27.378 76.459 27.406 76.387 27.406 L 75.323 27.406 C 74.22 27.406 73.372 27.13 72.779 26.578 C 72.186 26.027 71.89 25.208 71.89 24.12 L 71.89 19.034 C 71.89 18.965 71.861 18.898 71.811 18.849 C 71.76 18.8 71.691 18.772 71.62 18.772 L 70.06 18.772 C 69.989 18.772 69.92 18.744 69.869 18.695 C 69.819 18.646 69.79 18.579 69.79 18.51 L 69.79 16.564 C 69.79 16.494 69.819 16.428 69.869 16.378 C 69.92 16.329 69.989 16.302 70.06 16.302 L 71.62 16.302 C 71.691 16.302 71.76 16.274 71.811 16.225 C 71.861 16.176 71.89 16.109 71.89 16.039 L 71.89 12.127 C 71.89 12.058 71.918 11.991 71.969 11.942 C 72.02 11.893 72.088 11.865 72.16 11.865 L 74.658 11.865 C 74.73 11.865 74.798 11.893 74.849 11.942 C 74.9 11.991 74.928 12.058 74.928 12.127 L 74.928 16.039 C 74.928 16.109 74.956 16.176 75.007 16.225 C 75.058 16.274 75.127 16.302 75.198 16.302 L 77.004 16.302 C 77.076 16.302 77.145 16.329 77.195 16.378 C 77.246 16.428 77.275 16.494 77.275 16.564 L 77.275 18.51 C 77.275 18.579 77.246 18.646 77.195 18.695 C 77.145 18.744 77.076 18.772 77.004 18.772 L 75.198 18.772 Z M 86.637 24.096 C 87.205 23.521 87.489 22.769 87.489 21.842 C 87.489 20.915 87.205 20.163 86.637 19.587 C 86.069 19.012 85.323 18.724 84.401 18.724 C 83.479 18.724 82.734 19.012 82.166 19.587 C 81.598 20.163 81.314 20.915 81.314 21.842 C 81.314 22.769 81.598 23.521 82.166 24.096 C 82.734 24.672 83.479 24.959 84.401 24.959 C 85.323 24.959 86.069 24.672 86.637 24.096 Z M 80.869 27.046 C 80.029 26.582 79.366 25.907 78.881 25.019 C 78.395 24.132 78.152 23.073 78.152 21.842 C 78.152 20.611 78.395 19.551 78.881 18.664 C 79.366 17.777 80.029 17.102 80.869 16.638 C 81.709 16.174 82.631 15.942 83.635 15.942 C 84.525 15.942 85.286 16.11 85.921 16.446 C 86.554 16.781 87.06 17.253 87.439 17.861 L 87.489 17.861 L 87.489 16.564 C 87.489 16.494 87.517 16.428 87.568 16.378 C 87.619 16.329 87.687 16.302 87.759 16.302 L 90.232 16.302 C 90.304 16.302 90.373 16.329 90.423 16.378 C 90.474 16.428 90.502 16.494 90.502 16.564 L 90.502 27.119 C 90.502 27.189 90.474 27.256 90.423 27.305 C 90.373 27.354 90.304 27.382 90.232 27.382 L 87.759 27.382 C 87.687 27.382 87.619 27.354 87.568 27.305 C 87.517 27.256 87.489 27.189 87.489 27.119 L 87.489 25.823 L 87.439 25.823 C 87.06 26.431 86.554 26.902 85.92 27.238 C 85.286 27.573 84.525 27.741 83.635 27.741 C 82.631 27.741 81.709 27.509 80.869 27.046 Z M 100.789 24.096 C 101.357 23.521 101.641 22.769 101.641 21.842 C 101.641 20.915 101.357 20.163 100.789 19.587 C 100.221 19.012 99.475 18.724 98.553 18.724 C 97.631 18.724 96.886 19.012 96.318 19.587 C 95.75 20.163 95.466 20.915 95.466 21.842 C 95.466 22.769 95.75 23.521 96.318 24.096 C 96.886 24.672 97.631 24.959 98.553 24.959 C 99.475 24.959 100.221 24.672 100.789 24.096 Z M 97.034 27.238 C 96.4 26.902 95.894 26.431 95.515 25.823 L 95.466 25.823 L 95.466 27.119 C 95.466 27.189 95.437 27.256 95.386 27.305 C 95.336 27.354 95.267 27.382 95.195 27.382 L 92.697 27.382 C 92.626 27.382 92.557 27.354 92.506 27.305 C 92.456 27.256 92.427 27.189 92.427 27.119 L 92.427 10.856 C 92.427 10.786 92.456 10.72 92.506 10.671 C 92.557 10.621 92.626 10.594 92.697 10.594 L 95.195 10.594 C 95.267 10.594 95.336 10.621 95.386 10.671 C 95.437 10.72 95.466 10.786 95.466 10.856 L 95.466 17.86 L 95.515 17.86 C 95.894 17.253 96.4 16.781 97.034 16.446 C 97.668 16.11 98.43 15.942 99.319 15.942 C 100.323 15.942 101.246 16.174 102.086 16.637 C 102.926 17.101 103.588 17.777 104.074 18.664 C 104.56 19.552 104.803 20.611 104.803 21.842 C 104.803 23.073 104.56 24.132 104.074 25.02 C 103.588 25.907 102.926 26.583 102.086 27.046 C 101.246 27.51 100.324 27.742 99.319 27.742 C 98.43 27.742 97.668 27.574 97.034 27.238 Z M 109.012 27.382 L 106.514 27.382 C 106.442 27.382 106.373 27.354 106.323 27.305 C 106.272 27.256 106.244 27.189 106.244 27.12 L 106.244 10.857 C 106.244 10.787 106.272 10.72 106.323 10.671 C 106.373 10.622 106.442 10.594 106.514 10.594 L 109.012 10.594 C 109.083 10.594 109.152 10.622 109.203 10.671 C 109.253 10.72 109.282 10.787 109.282 10.857 L 109.282 27.12 C 109.282 27.189 109.253 27.256 109.203 27.305 C 109.152 27.354 109.083 27.382 109.012 27.382 Z M 114.904 18.868 C 114.49 19.182 114.21 19.635 114.065 20.227 C 114.026 20.39 114.157 20.547 114.33 20.547 L 119.084 20.547 C 119.249 20.547 119.378 20.403 119.352 20.245 C 119.257 19.685 119.009 19.238 118.609 18.904 C 118.14 18.512 117.526 18.317 116.769 18.317 C 116.011 18.317 115.39 18.5 114.904 18.868 Z M 120.993 17.489 C 121.964 18.52 122.45 19.979 122.45 21.866 L 122.45 22.179 C 122.45 22.249 122.422 22.315 122.371 22.365 C 122.32 22.414 122.252 22.441 122.18 22.441 L 114.238 22.441 C 114.199 22.441 114.16 22.45 114.124 22.466 C 114.088 22.482 114.056 22.506 114.031 22.535 C 114.005 22.565 113.987 22.599 113.976 22.636 C 113.966 22.673 113.964 22.712 113.971 22.75 C 114.098 23.451 114.417 24.007 114.929 24.42 C 115.513 24.892 116.25 25.127 117.14 25.127 C 118.287 25.127 119.35 24.692 120.327 23.822 C 120.447 23.716 120.636 23.739 120.728 23.868 L 121.943 25.56 C 121.981 25.613 121.998 25.677 121.99 25.741 C 121.982 25.805 121.951 25.864 121.901 25.907 C 121.305 26.413 120.643 26.841 119.931 27.178 C 119.14 27.553 118.21 27.742 117.14 27.742 C 115.905 27.742 114.826 27.498 113.904 27.01 C 112.981 26.523 112.265 25.835 111.755 24.948 C 111.244 24.06 110.989 23.033 110.989 21.866 C 110.989 20.699 111.236 19.668 111.73 18.772 C 112.224 17.877 112.916 17.181 113.805 16.686 C 114.694 16.19 115.732 15.942 116.917 15.942 C 118.662 15.942 120.021 16.458 120.993 17.489 Z M 59.584 12.4 C 59.584 13.389 58.758 14.191 57.739 14.191 C 56.72 14.191 55.894 13.389 55.894 12.399 C 55.894 11.41 56.72 10.608 57.739 10.608 C 58.758 10.608 59.584 11.41 59.584 12.399"
            fill="rgb(255,255,255)"></path>
        <path
            d="M 14.226 5.864 L 2.348 10.636 C 1.688 10.901 1.694 11.812 2.359 12.068 L 14.286 16.66 C 15.334 17.064 16.501 17.064 17.549 16.66 L 29.477 12.068 C 30.141 11.812 30.148 10.901 29.488 10.636 L 17.61 5.864 C 16.527 5.428 15.309 5.428 14.226 5.864"
            fill="rgb(252,180,0)"></path>
        <path
            d="M 16.976 19.166 L 16.976 30.639 C 16.976 31.184 17.543 31.558 18.065 31.357 L 31.355 26.348 C 31.504 26.291 31.631 26.192 31.721 26.064 C 31.81 25.936 31.858 25.785 31.858 25.63 L 31.858 14.158 C 31.858 13.612 31.291 13.239 30.769 13.44 L 17.478 18.448 C 17.33 18.506 17.203 18.605 17.113 18.733 C 17.024 18.861 16.976 19.012 16.976 19.167"
            fill="rgb(24,191,255)"></path>
        <path
            d="M 13.873 19.759 L 9.928 21.608 L 9.528 21.796 L 1.201 25.669 C 0.674 25.916 0 25.543 0 24.974 L 0 14.207 C 0 14.001 0.109 13.823 0.255 13.689 C 0.314 13.631 0.382 13.582 0.456 13.542 C 0.655 13.426 0.939 13.395 1.18 13.488 L 13.806 18.345 C 14.448 18.592 14.498 19.465 13.873 19.759"
            fill="rgb(248,43,96)"></path>
        <path
            d="M 13.873 19.759 L 9.928 21.608 L 0.255 13.689 C 0.314 13.631 0.382 13.582 0.456 13.542 C 0.655 13.426 0.939 13.395 1.18 13.488 L 13.806 18.345 C 14.448 18.592 14.498 19.465 13.873 19.759"
            fill="rgba(255,255,255,0.25)"></path>
    </g>
</svg>